<?xml version="1.0" encoding="UTF-8"?>
<!-- Generator: Adobe Illustrator 17.1.0, SVG Export Plug-In . SVG Version: 6.00 Build 0)  -->
<!DOCTYPE svg PUBLIC "-//W3C//DTD SVG 1.1//EN" "http://www.w3.org/Graphics/SVG/1.1/DTD/svg11.dtd">
<svg version="1.1" id="Layer_1" xmlns="http://www.w3.org/2000/svg" xmlns:xlink="http://www.w3.org/1999/xlink" x="0px" y="0px" viewBox="-79 -79 200 200" enable-background="new -79 -79 200 200" xml:space="preserve">
<path fill="#1BA1E1" d="M33.3,110.7V87.8l-5.2,2.7c-0.5,0.2-1,0.4-1.4,0.4c-1.3,0-2.5-0.8-3-2.2c-0.5-1.5,0.2-3.1,1.7-3.9l8-4.1  v-9.9c0-0.8,0.3-1.3,0.8-1.8c0.8-0.8,2-1.7,2.5-2.1c8.3-6.8,25.3-13.3,32.6-19.9c4.1-3.7,6.9-8.1,6.9-13.7C76,20.1,76.3,7,76.3-6.2  c0-4.7-3.6-8-8.5-8c-4.6,0-7.1,2.8-7.1,7.9c0,9.1,0,18.3,0,27.4c0,1-0.1,2.1-0.3,3.1c-0.6,2.4-2.3,3.5-4.8,3.3  c-2.4-0.2-3.7-1.6-4-3.9c-0.1-0.9-0.1-1.9-0.1-2.8c0-26.6,0-53.2,0-79.8c0-3.4-1.2-5.8-4.1-7.5C40.7-70.6,33-66.1,33-59.5  c0.2,16.4,0.1,35.4,0.1,48.8c0,0.9,0.1,1.6-0.1,2.5c0,0-0.1,1.5-1.8,1.5c-1.5,0-1.6-1.2-1.6-1.2c-0.2-0.9-0.1-2-0.1-3  c0-19.9,0-39.8,0-59.7c0-4.9-4-8.5-9.4-8.4c-4.8,0.1-8.7,3.2-8.7,8.3c0,20.1,0,41.5,0,61.5c0,1.8-0.2,2.9-2,2.9  c-1.3,0-1.5-1.2-1.6-3c0-17.1,0-35.6-0.1-52.8c0-1.9-0.4-4-1.4-5.6c-2.1-3.2-7.7-4.4-11.2-3.1c-3.7,1.4-6.1,3.9-6.1,8.4  c0,17.2,0,34.4,0,51.7c0,0.9,0.1,2.2-0.2,2.9c-0.4,0.8-0.6,1-1.4,1c-0.7,0-1-0.3-1.4-1c-0.4-0.7-0.2-1.7-0.2-2.5c0-11,0.1-22,0-33.1  c0-1.9-0.6-4.1-1.7-5.7c-1.9-2.7-5.7-3.3-8.9-2.1c-3.1,1.2-4.8,4.9-4.8,8.6c0,15.4,0,30.2,0,47.1l19.9,10.5l5.2-6  c1.2-1.3,3.1-1.4,4.5-0.3C1.2,10,1.4,12,0.2,13.3L-4,18.2l6.5,3.5L5,15.8c0.7-1.6,2.5-2.3,4.1-1.6c1.6,0.7,2.3,2.5,1.6,4.1l-2.7,6.2  l19.3,10.2l5.9-6.8c1.2-1.3,3.1-1.4,4.5-0.3c1.3,1.1,1.4,3.1,0.3,4.5l-4.9,5.7l11.1,5.9c1.5,0.8,2.1,2.7,1.3,4.3  c-0.6,1.1-1.7,1.7-2.8,1.7c-0.5,0-1-0.1-1.5-0.4l-12.4-6.6l-4.5,5.1c-0.6,0.7-1.5,1.1-2.4,1.1c-0.7,0-1.5-0.3-2.1-0.8  c-1.3-1.1-1.4-3.1-0.3-4.5l3.5-4L5.6,30.4l-2.4,5.5c-0.5,1.2-1.7,1.9-2.9,1.9c-0.4,0-0.8-0.1-1.2-0.3c-1.6-0.7-2.3-2.5-1.6-4.1  l2.6-6L-8.3,23l-5.1,5.9c-0.6,0.7-1.5,1.1-2.4,1.1c-0.7,0-1.5-0.3-2.1-0.8c-1.3-1.1-1.4-3.1-0.3-4.5L-14,20l-15.5-8.2  c0,12-0.1,25.9,0.1,42.3l-0.1,24l12.3-1.6v-6.2c0-1.7,1.2-3.7,2.9-3.7c0,0-0.1-0.6-0.1-0.6h0.2c0,0-0.1,0.6-0.1,0.6  c1.7,0.1,3.4,2,3.4,3.7v5.4l20.8-2.7c1.8-0.2,3.3,1,3.5,2.7c0.2,1.7-1,3.3-2.7,3.5L-10.9,82v5.7c0,1.9-1.6,3.5-3.5,3.5h-0.1  c-1.5,0-2.7-1.2-2.7-2.7v-5.6l-12.4,1.6l-0.1,26.3h-32.9V121h167.2v-10.3H33.3z"/>
</svg>