<?xml version="1.0" encoding="UTF-8"?>
<!-- Generator: Adobe Illustrator 17.1.0, SVG Export Plug-In . SVG Version: 6.00 Build 0)  -->
<!DOCTYPE svg PUBLIC "-//W3C//DTD SVG 1.1//EN" "http://www.w3.org/Graphics/SVG/1.1/DTD/svg11.dtd">
<svg version="1.1" id="Layer_1" xmlns="http://www.w3.org/2000/svg" xmlns:xlink="http://www.w3.org/1999/xlink" x="0px" y="0px" viewBox="0 0 200 200" enable-background="new 0 0 200 200" xml:space="preserve">
<g id="Layer_1_1_" display="none">
	<g id="_x38_20-bathtub-selected_x40_2x.png" display="inline">
		<g>
			<path fill="#333333" d="M219.9,48.2H94.1V2c0-8.5,6.9-15.4,15.4-15.4S124.9-6.5,124.9,2h-10.3c-1.4,0-2.6,1.2-2.6,2.6     s1.2,2.6,2.6,2.6h25.7c1.4,0,2.6-1.2,2.6-2.6S141.8,2,140.3,2H130c0-11.4-9.2-20.6-20.6-20.6C98.2-18.6,88.9-9.4,88.9,2v46.2     h-7.7c-1.4,0-2.6,1.2-2.6,2.6s1.2,2.6,2.6,2.6h7.7v20.5c0,14,9.4,25.9,22.3,29.6c-1.1,2.9,3.7,5.5,5,1c1.2,0.1,2.2,0.2,3.4,0.2     h61.6c1.2,0,2.3-0.1,3.4-0.2c1.4,4.5,6.1,1.9,5-1c12.9-3.7,22.3-15.6,22.3-29.6V53.3h7.7c1.4,0,2.6-1.2,2.6-2.6     C222.5,49.3,221.3,48.2,219.9,48.2z"/>
		</g>
	</g>
</g>
<g id="Layer_2" display="none">
	<g display="inline">
		<polygon fill="#333333" points="155.8,52.1 153.5,52.1 86.6,52.1 86.6,-10.5 78.5,-10.5 78.5,52.1 78.5,75.3 78.5,99.7 86.6,99.7     86.6,75.3 153.5,75.3 155.8,75.3 214.1,75.3 214.1,99.7 222.3,99.7 222.3,75.3 222.3,54.4 222.3,52.1   "/>
		<path fill="#333333" d="M155.8,45.7h65.9v-2.3c0-9.6-7.8-17.4-17.4-17.4h-48.5h-2.3H91.8v19.7h61.6    C153.4,45.7,155.8,45.7,155.8,45.7z"/>
		<path fill="#333333" d="M114.4,9.2H91.8V22h39.4C129.2,14.6,122.4,9.2,114.4,9.2z"/>
	</g>
</g>
<g id="Layer_3" display="none">
	<g display="inline">
		<path fill="#333333" d="M220.7,46.2l-64.1-64.1c-3.3-3.4-8.6-3.4-11.9,0l-64,64.1c-3.3,3.4-2.1,6.2,2.7,6.2h13.3v49.2    c0,3.5,0.1,6.5,6.6,6.5h31.1V58.6h32.5V108h32.6c4.9,0,5-2.9,5-6.5V52.4h13.3C222.7,52.4,223.9,49.5,220.7,46.2z"/>
	</g>
</g>
<g>
	<path fill="#FFFFFF" d="M2.7,56.9c-4-4.4-3.6-12,1.3-16c20.9-17.8,46.7-39.6,101.3-8.5c41.8,23.1,56.9,10.2,76.4-6.7   c4.9-4,11.5-3.1,15.6,1.3c4,4.9,3.6,12-1.3,16c-12.9,11.6-28.4,24.4-52,24.4c-13.3,0-29.3-4-49.3-15.5   c-41.8-23.5-56.9-10.1-76.4,6.3C13.8,62.6,6.7,61.8,2.7,56.9z M197.3,84c4,4.9,3.6,12-1.3,16c-12.9,11.1-28.4,24.4-52,24.4   c-13.3,0-29.3-4.4-49.3-15.5c-41.8-23.6-56.9-10.2-76.4,6.2c-4.4,4-11.5,3.6-15.6-1.3c-4-4.9-3.6-12,1.3-16   c20.9-17.8,46.6-40,101.3-8.9c41.8,23.6,56.9,10.2,76.4-6.2C186.6,78.6,193.3,79.1,197.3,84z M197.3,140.8c4,4.4,3.6,12-1.3,16   c-12.9,11.1-28.4,24.4-52,24.4c-13.3,0-29.3-4.4-49.3-15.5c-41.8-23.5-56.9-10.7-76.4,6.2c-4.4,4-11.5,3.6-15.6-1.3   c-4-4.9-3.6-12,1.3-16c20.9-17.8,46.6-40,101.3-8.9c41.8,23.6,56.9,10.2,76.4-6.2C186.6,135.5,193.3,135.9,197.3,140.8z"/>
</g>
</svg>