<?xml version="1.0" encoding="UTF-8"?>
<!-- Generator: Adobe Illustrator 17.1.0, SVG Export Plug-In . SVG Version: 6.00 Build 0)  -->
<!DOCTYPE svg PUBLIC "-//W3C//DTD SVG 1.1//EN" "http://www.w3.org/Graphics/SVG/1.1/DTD/svg11.dtd">
<svg version="1.1" id="Layer_1" xmlns="http://www.w3.org/2000/svg" xmlns:xlink="http://www.w3.org/1999/xlink" x="0px" y="0px" viewBox="-85.2 -85 200 200" enable-background="new -85.2 -85 200 200" xml:space="preserve">
<g>
	<g>
		<g>
			<g>
				<path fill="#333333" d="M113.3-45.7L71.4-3.8L23.1,44.1l-39.6,8.7l8.3-39.9l48.3-47.9L82-77c0,0,9-2,21,10      C115-54.7,113.3-45.7,113.3-45.7z M24.8,35.5c0,0-0.3-7.3-8.6-15.6c-8-8.3-15.6-8.3-15.6-8.3l-3.7,4l-3,13.3      c2.3,1.3,5,3,7.7,5.7c3,3,4.7,5.3,6,8l13.3-3L24.8,35.5z"/>
			</g>
		</g>
	</g>
	<path fill="#333333" d="M23.6-29.5h-89.2V85h133V10.9h19.1V85c0,10.5-8.6,19.5-19.5,19.5H-65.6c-10.5,0-19.5-9-19.5-19.5V-29.5   c0-10.9,9-19.5,19.5-19.5h88.9"/>
</g>
</svg>