<?xml version="1.0" encoding="UTF-8"?>
<!-- Generator: Adobe Illustrator 17.1.0, SVG Export Plug-In . SVG Version: 6.00 Build 0)  -->
<!DOCTYPE svg PUBLIC "-//W3C//DTD SVG 1.1//EN" "http://www.w3.org/Graphics/SVG/1.1/DTD/svg11.dtd">
<svg version="1.1" id="Layer_1" xmlns="http://www.w3.org/2000/svg" xmlns:xlink="http://www.w3.org/1999/xlink" x="0px" y="0px" viewBox="24.5 -28 200 200" enable-background="new 24.5 -28 200 200" xml:space="preserve">
<g id="_x38_20-bathtub-selected_x40_2x.png">
	<g>
		<path fill="#333333" d="M220.9,77.8H46.2V13.6c0-11.8,9.6-21.4,21.4-21.4s21.4,9.6,21.4,21.4H74.7c-2,0-3.6,1.6-3.6,3.6    c0,2,1.6,3.6,3.6,3.6h35.7c2,0,3.6-1.6,3.6-3.6c0-2-1.6-3.6-3.6-3.6H96.1C96.1-2.2,83.3-15,67.5-15C51.8-15,39-2.2,39,13.6v64.2    H28.3c-2,0-3.6,1.6-3.6,3.6c0,2,1.6,3.6,3.6,3.6H39v28.5c0,19.5,13.1,36,31,41.1c-1.5,4,5.2,7.7,7,1.4c1.6,0.2,3.1,0.3,4.7,0.3    h85.6c1.6,0,3.2-0.1,4.7-0.3c1.9,6.3,8.5,2.6,7-1.4c17.9-5.1,31-21.6,31-41.1V84.9h10.7c2,0,3.6-1.6,3.6-3.6    C224.5,79.4,222.9,77.8,220.9,77.8z"/>
	</g>
</g>
</svg>