<?xml version="1.0" encoding="UTF-8"?>
<!-- Generator: Adobe Illustrator 17.1.0, SVG Export Plug-In . SVG Version: 6.00 Build 0)  -->
<!DOCTYPE svg PUBLIC "-//W3C//DTD SVG 1.1//EN" "http://www.w3.org/Graphics/SVG/1.1/DTD/svg11.dtd">
<svg version="1.1" id="Layer_1" xmlns="http://www.w3.org/2000/svg" xmlns:xlink="http://www.w3.org/1999/xlink" x="0px" y="0px" viewBox="24.5 -28 200 200" enable-background="new 24.5 -28 200 200" xml:space="preserve">
<g>
	<path fill="#FFFFFF" d="M124.5,10c-65.4,0-99.7,53.7-99.7,62.2s34.3,62.2,99.7,62.2s99.7-53.7,99.7-62.2S189.9,10,124.5,10z    M124.5,120.1c-24.5,0-44.3-21.5-44.3-47.9s19.9-47.9,44.3-47.9s44.3,21.5,44.3,47.9S149,120.1,124.5,120.1z M124.5,72.3   c-4-4.9,6.6-23.9,0-23.9c-12.2,0-22.2,10.7-22.2,23.9c0,13.3,9.9,23.9,22.2,23.9s22.2-10.7,22.2-23.9   C146.7,66.1,127.9,76.5,124.5,72.3z"/>
</g>
</svg>