<?xml version="1.0" encoding="UTF-8"?>
<!-- Generator: Adobe Illustrator 17.1.0, SVG Export Plug-In . SVG Version: 6.00 Build 0)  -->
<!DOCTYPE svg PUBLIC "-//W3C//DTD SVG 1.1//EN" "http://www.w3.org/Graphics/SVG/1.1/DTD/svg11.dtd">
<svg version="1.1" id="Layer_1" xmlns="http://www.w3.org/2000/svg" xmlns:xlink="http://www.w3.org/1999/xlink" x="0px" y="0px" viewBox="0 0 200 200" enable-background="new 0 0 200 200" xml:space="preserve">
<path fill="#333333" d="M194.5,19.9C190.8,21.3,6.2,86.3,2.6,87.6c-3.1,1.1-3.8,3.7-0.1,5.2c4.4,1.7,41.3,16.5,41.3,16.5h0l24.5,9.8  c0,0,117.8-86.5,119.4-87.7c1.6-1.2,3.5,1,2.3,2.3c-1.2,1.3-85.6,92.5-85.6,92.5c0,0,0,0,0,0l-4.9,5.5l6.5,3.5v0  c0,0,50.5,27.2,54.1,29.1c3.2,1.7,7.3,0.3,8.2-3.6c1.1-4.6,30.9-133.3,31.6-136.1C200.7,20.9,198.2,18.6,194.5,19.9z M68,177.8  c0,2.7,1.5,3.4,3.6,1.5c2.7-2.5,31-27.8,31-27.8L68,133.7V177.8z"/>
</svg>