<?xml version="1.0" encoding="UTF-8"?>
<!-- Generator: Adobe Illustrator 17.1.0, SVG Export Plug-In . SVG Version: 6.00 Build 0)  -->
<!DOCTYPE svg PUBLIC "-//W3C//DTD SVG 1.1//EN" "http://www.w3.org/Graphics/SVG/1.1/DTD/svg11.dtd">
<svg version="1.1" xmlns="http://www.w3.org/2000/svg" xmlns:xlink="http://www.w3.org/1999/xlink" x="0px" y="0px" viewBox="24.5 -28 200 200" enable-background="new 24.5 -28 200 200" xml:space="preserve">
<g id="Layer_1" display="none">
	<g id="_x38_20-bathtub-selected_x40_2x.png" display="inline">
		<g>
			<path fill="#333333" d="M220.9,77.8H46.2V13.6c0-11.8,9.6-21.4,21.4-21.4s21.4,9.6,21.4,21.4H74.7c-2,0-3.6,1.6-3.6,3.6     c0,2,1.6,3.6,3.6,3.6h35.7c2,0,3.6-1.6,3.6-3.6c0-2-1.6-3.6-3.6-3.6H96.1C96.1-2.2,83.3-15,67.5-15C51.8-15,39-2.2,39,13.6v64.2     H28.3c-2,0-3.6,1.6-3.6,3.6c0,2,1.6,3.6,3.6,3.6H39v28.5c0,19.5,13.1,36,31,41.1c-1.5,4,5.2,7.7,7,1.4c1.6,0.2,3.1,0.3,4.7,0.3     h85.6c1.6,0,3.2-0.1,4.7-0.3c1.9,6.3,8.5,2.6,7-1.4c17.9-5.1,31-21.6,31-41.1V84.9h10.7c2,0,3.6-1.6,3.6-3.6     C224.5,79.4,222.9,77.8,220.9,77.8z"/>
		</g>
	</g>
</g>
<g id="Layer_2" display="none">
	<g display="inline">
		<polygon fill="#333333" points="131.9,83.3 128.6,83.3 35.8,83.3 35.8,-3.7 24.5,-3.7 24.5,83.3 24.5,115.5 24.5,149.3     35.8,149.3 35.8,115.5 128.6,115.5 131.9,115.5 212.9,115.5 212.9,149.3 224.2,149.3 224.2,115.5 224.2,86.5 224.2,83.3   "/>
		<path fill="#333333" d="M131.9,74.4h91.5v-3.2c0-13.3-10.8-24.2-24.2-24.2h-67.4h-3.2H43v27.4h85.6H131.9z"/>
		<path fill="#333333" d="M74.4,23.7H43v17.7h54.7C94.9,31.2,85.5,23.7,74.4,23.7z"/>
	</g>
</g>
<g id="Layer_3">
	<g>
		<path fill="#333333" d="M222,75l-89-89c-4.6-4.7-12-4.7-16.5,0l-89,89c-4.6,4.7-2.9,8.6,3.8,8.6h18.5V152c0,4.9,0.2,9,9.1,9h43.2    V92.3h45.2v68.6h45.3c6.8,0,7-4,7-9V83.6h18.5C224.8,83.6,226.5,79.7,222,75z"/>
	</g>
</g>
<g id="Layer_4" display="none">
	<polygon display="inline" fill="#333333" points="326.4,233.7 290.8,233.7 286.1,233.7 267.1,233.7 262.4,233.7 262.4,238.4    262.4,266.1 262.4,266.1 262.4,270.7 262.4,270.7 262.4,297.7 262.4,302.4 267.1,302.4 286.1,302.4 290.8,302.4 307.9,302.4    307.9,297.7 290.8,297.7 290.8,287.4 286.1,287.4 286.1,297.7 267.1,297.7 267.1,270.7 286.1,270.7 286.1,277.4 290.8,277.4    290.8,259.4 286.1,259.4 286.1,266.1 267.1,266.1 267.1,238.4 286.1,238.4 286.1,251.4 290.8,251.4 290.8,238.4 326.4,238.4    326.4,266.1 308.8,266.1 308.8,256.1 304.1,256.1 304.1,266.1 304.1,270.7 308.8,270.7 326.4,270.7 326.4,297.7 320.4,297.7    320.4,302.4 326.4,302.4 331.1,302.4 331.1,297.7 331.1,238.4 331.1,233.7  "/>
</g>
</svg>