<?xml version="1.0" encoding="UTF-8"?>
<!-- Generator: Adobe Illustrator 17.1.0, SVG Export Plug-In . SVG Version: 6.00 Build 0)  -->
<!DOCTYPE svg PUBLIC "-//W3C//DTD SVG 1.1//EN" "http://www.w3.org/Graphics/SVG/1.1/DTD/svg11.dtd">
<svg version="1.1" id="Layer_1" xmlns="http://www.w3.org/2000/svg" xmlns:xlink="http://www.w3.org/1999/xlink" x="0px" y="0px" viewBox="0 0 200 200" enable-background="new 0 0 200 200" xml:space="preserve">
<path fill="#333333" d="M180,31H20C9,31,0,40,0,51v100c0,11,9,20,20,20h160c11,0,20-9,20-20V51C200,40,191,31,180,31z M180,151H20  V91h160V151z M180,66.1H20V51h160V66.1z M40,112v6h6v-6H40z M76,124v6h12v-6h6v-6h6v-6H88v6h-6v6H76z M100,130v-6h-6v6H100z M70,130  v-6H58v6H70z M76,118h6v-6H70v12h6V118z M52,124h6v-6h6v-6H52v6h-6v6h-6v6h12V124z"/>
</svg>