<?xml version="1.0" encoding="UTF-8"?>
<!-- Generator: Adobe Illustrator 17.1.0, SVG Export Plug-In . SVG Version: 6.00 Build 0)  -->
<!DOCTYPE svg PUBLIC "-//W3C//DTD SVG 1.1//EN" "http://www.w3.org/Graphics/SVG/1.1/DTD/svg11.dtd">
<svg version="1.1" id="Layer_1" xmlns="http://www.w3.org/2000/svg" xmlns:xlink="http://www.w3.org/1999/xlink" x="0px" y="0px" viewBox="-84.8 -88 200 200" enable-background="new -84.8 -88 200 200" xml:space="preserve">
<g>
	<path fill="#333333" d="M14.1,1.4C3.4,7.2-5.8,12.1-6.8,12.6c-2.8,1.6-4.6,1.6-7.1,1.6s-4.2,0-7-1.6c-2.5-1.3-55.6-29.3-60-31.5   c-3.2-1.6-2.2,0.3-2.2,1.6c0,1.6,0,58,0,58c0,3.1,2.4,4.8,5.9,4.8h95.4c-5-7.4-7.9-16.3-7.9-25.7C10.3,13.3,11.7,7,14.1,1.4z"/>
	<path fill="#333333" d="M-80.4-35.8c3.8,1.9,57.1,31.6,58.9,32.5c2.2,1.3,4.7,1.4,7.3,1.4s5.4-0.6,7.3-1.8   C-5-4.6,48.2-33.8,52-35.7c4.1-2.2,7.6-9.6,0.6-9.6H-80.7C-87.9-45.3-84.1-38-80.4-35.8z"/>
	<path fill="#333333" d="M113.3,64.1L89.8,40.8c3.7-5.9,5.7-12.6,5.7-20c0-21-18.3-39.3-39.6-39.3c-21,0-38.1,17.1-38.1,38.3   c0,21,18.3,39.3,39.3,39.3c6.9,0,13.6-2,19.3-5.2L100,77.4c2.2,2.2,5.9,2.2,8.4,0l5.7-5.7C116.3,69.2,115.5,66.5,113.3,64.1z    M57.2,47.5c-14.6,0-27.7-13.1-27.7-27.7c0-14.6,11.9-26.5,26.4-26.5c14.6,0,27.7,12.9,27.7,27.4C83.6,35.6,71.8,47.5,57.2,47.5z"/>
</g>
</svg>