<?xml version="1.0" encoding="UTF-8"?>
<!-- Generator: Adobe Illustrator 17.1.0, SVG Export Plug-In . SVG Version: 6.00 Build 0)  -->
<!DOCTYPE svg PUBLIC "-//W3C//DTD SVG 1.1//EN" "http://www.w3.org/Graphics/SVG/1.1/DTD/svg11.dtd">
<svg version="1.1" id="Layer_1" xmlns="http://www.w3.org/2000/svg" xmlns:xlink="http://www.w3.org/1999/xlink" x="0px" y="0px" viewBox="0 0 200 200" enable-background="new 0 0 200 200" xml:space="preserve">
<path fill="#333333" d="M179.7,67c-17.6-40.9-45.9-72.1-60.2-66.3c-24.3,9.9,14.5,57.4-105,105.9c-10.3,4.2-12.9,21-8.6,31  c4.3,10,18.4,20,28.7,15.8c1.8-0.7,8.3-2.8,8.3-2.8c7.4,9.9,15.1,4,17.8,10.3c3.3,7.6,10.4,24,12.9,29.6c2.4,5.6,7.9,10.7,11.9,9.2  c4-1.5,17.6-6.7,22.8-8.7c5.2-2,6.4-6.6,4.8-10.3c-1.7-3.9-8.7-5.1-10.7-9.7c-2-4.6-8.6-19.3-10.4-24c-2.6-6.3,2.9-11.4,10.8-12.3  c54.4-5.7,64.5,27.9,83,20.4C200.2,149.4,197.3,107.9,179.7,67z M173.6,133.4c-3.2,1.3-24.6-15.6-38.3-47.4  c-13.7-31.8-12-60.9-8.8-62.2c3.2-1.3,24,19.1,37.7,50.9C177.9,106.5,176.8,132.1,173.6,133.4z"/>
</svg>